<?xml version="1.0" encoding="UTF-8"?>
<svg id="Laag_1" xmlns="http://www.w3.org/2000/svg" version="1.1" viewBox="0 0 547.58 262.5">
  <!-- Generator: Adobe Illustrator 30.8.1, SVG Export Plug-In . SVG Version: 2.1.4 Build 1)  -->
  <defs>
    <style>
      .st0 {
        fill: #be1622;
      }

      .st1 {
        fill: #1d1d1b;
      }
    </style>
  </defs>
  <g>
    <path class="st1" d="M170.07,43.44c0-.51.15-.9.46-1.18s.64-.42.99-.42c.56,0,.92.36,1.07,1.07l.08,2.59c1.02-1.27,2.1-2.56,3.24-3.85,1.15-1.3,2.34-2.45,3.59-3.47,1.25-1.02,2.54-1.84,3.89-2.48,1.35-.64,2.73-.95,4.16-.95.86,0,1.76.15,2.67.46,3,1.02,5.1,2.53,6.3,4.54,1.19,2.01,1.79,4.21,1.79,6.6,0,1.93-.28,3.89-.84,5.88-.56,1.98-1.27,3.85-2.14,5.61-.87,1.76-1.79,3.33-2.79,4.73-.99,1.4-1.9,2.46-2.71,3.17-.97.81-2.2,1.55-3.7,2.21-1.5.66-3.01.99-4.54.99-1.02,0-2.02-.2-3.01-.59s-1.87-1.06-2.63-2c.05-.46.2-.85.46-1.15.25-.31.56-.46.92-.46.41,0,.76.23,1.07.69.51.15.99.28,1.45.38.46.1.94.15,1.45.15,1.47,0,2.86-.42,4.16-1.26,1.3-.84,2.47-1.88,3.51-3.12,1.04-1.24,1.93-2.57,2.67-3.99.74-1.42,1.31-2.74,1.72-3.96.35-1.07.61-2.13.76-3.2.15-1.06.23-2.08.23-3.04,0-2.28-.47-4.15-1.41-5.59-.94-1.45-2.3-2.17-4.08-2.17-1.37,0-2.79.38-4.24,1.15s-2.84,1.76-4.16,2.98c-1.32,1.22-2.58,2.61-3.78,4.16-1.2,1.55-2.25,3.12-3.17,4.69.25,2.29.46,4.35.61,6.18.15,1.83.23,3.71.23,5.65,0,2.49-.17,4.95-.5,7.36-.33,2.42-.85,4.58-1.56,6.49-.71,1.91-1.6,3.45-2.67,4.62-1.07,1.17-2.37,1.76-3.89,1.76-2.04,0-3.42-.81-4.16-2.44-.74-1.63-1.11-3.89-1.11-6.79,0-1.63.08-3.13.23-4.5.15-1.37.33-2.37.53-2.98.51-1.68,1.09-3.29,1.76-4.85.66-1.55,1.37-3.08,2.14-4.58.76-1.5,1.58-3.03,2.44-4.58.86-1.55,1.76-3.17,2.67-4.85-.05-.97-.08-1.91-.08-2.82s-.03-1.86-.08-2.82ZM170.14,69.92c.05-1.02.1-1.93.15-2.75.05-.81.1-1.59.15-2.33.05-.74.1-1.47.15-2.21.05-.74.08-1.54.08-2.4,0-.36-.01-.71-.04-1.07-.03-.36-.04-.74-.04-1.15-.66,1.48-1.36,2.99-2.1,4.54-.74,1.55-1.41,3.14-2.02,4.77-.61,1.63-1.12,3.28-1.53,4.96-.41,1.68-.61,3.36-.61,5.04,0,1.22.13,2.11.38,2.67.25.56.56.84.92.84s.79-.31,1.3-.92c.51-.61.98-1.41,1.41-2.4.43-.99.81-2.15,1.15-3.47.33-1.32.55-2.7.65-4.12Z"/>
    <path class="st1" d="M190.83,76.49c-.05,0-.09.01-.11.04-.03.03-.09.04-.19.04-.41,0-.73-.14-.95-.42-.23-.28-.34-.6-.34-.95,0-.46.18-.84.53-1.15.46-.81,1.05-1.98,1.79-3.51.74-1.53,1.49-3.1,2.25-4.73.76-1.63,1.5-3.17,2.21-4.62.71-1.45,1.27-2.51,1.68-3.17.41-.41.89-.61,1.45-.61.46,0,.97.15,1.53.46,1.02,1.37,1.88,2.56,2.59,3.55.71.99,1.3,1.91,1.76,2.75.46.84.79,1.65.99,2.44.2.79.31,1.64.31,2.56,0,1.12-.14,2.37-.42,3.74-.28,1.37-.62,3.13-1.03,5.27,1.22-.25,2.42-.61,3.59-1.07,1.17-.46,2.34-.92,3.51-1.37.2-.1.41-.15.61-.15.41,0,.71.13.92.38.2.25.31.53.31.84,0,.41-.38.88-1.15,1.41s-1.67,1.08-2.71,1.64c-1.04.56-2.13,1.08-3.24,1.56-1.12.48-2.01.85-2.67,1.11h-.76c-.92,0-1.64-.45-2.18-1.34-.53-.89-.8-1.72-.8-2.48,0-.86.13-1.73.38-2.6.25-.86.43-1.73.53-2.59.15-1.12.23-2.14.23-3.05,0-1.37-.18-2.64-.53-3.82-.36-1.17-.97-2.44-1.83-3.82-.2.31-.51.83-.92,1.57-.41.74-.85,1.59-1.34,2.56s-1.01,1.97-1.56,3.01c-.56,1.04-1.11,2.02-1.64,2.94-.53.92-1.04,1.7-1.53,2.37-.48.66-.9,1.07-1.26,1.22Z"/>
    <path class="st1" d="M225.86,64.58c-.51,1.07-1.06,2.14-1.64,3.21-.59,1.07-1.25,2.06-1.98,2.98-.74.92-1.55,1.72-2.44,2.4-.89.69-1.9,1.18-3.01,1.49,0,1.07.15,2.12.46,3.17.31,1.04.94,1.56,1.91,1.56.25,0,.52-.02.8-.08.28-.05.6-.2.95-.46.31-.15.75-.43,1.34-.84.58-.41,1.22-.88,1.91-1.41.69-.53,1.35-1.12,1.98-1.76.64-.64,1.11-1.28,1.41-1.95.15-.36.38-.53.69-.53.35,0,.69.15.99.46.31.31.46.66.46,1.07,0,.36-.31.92-.92,1.68-.61.76-1.31,1.55-2.1,2.37-.79.81-1.6,1.58-2.44,2.29-.84.71-1.49,1.17-1.95,1.37-.15.05-.6.28-1.34.69-.74.41-1.36.61-1.87.61-1.12,0-2.09-.23-2.9-.69-.81-.46-1.49-1.07-2.02-1.83-.53-.76-.93-1.64-1.18-2.63-.26-.99-.38-2.02-.38-3.09-.31-.15-.46-.43-.46-.84,0-.36.13-.66.38-.92,0-.61.02-1.23.08-1.87.05-.64.18-1.28.38-1.95.31-1.07.73-2.34,1.26-3.82.53-1.47,1.21-2.89,2.02-4.24.81-1.35,1.78-2.49,2.9-3.43,1.12-.94,2.39-1.41,3.82-1.41s2.39.47,2.9,1.41c.51.94.76,2.02.76,3.24,0,.71-.06,1.41-.19,2.1-.13.69-.32,1.23-.57,1.64ZM222.19,61.38c-.51.41-1.02,1.01-1.53,1.79-.51.79-.97,1.64-1.37,2.56-.41.92-.79,1.86-1.14,2.82-.36.97-.64,1.86-.84,2.67.61-.56,1.37-1.63,2.29-3.21.2-.36.46-.8.76-1.34.31-.53.58-1.12.84-1.76.25-.64.48-1.26.69-1.87.2-.61.31-1.17.31-1.68Z"/>
    <path class="st1" d="M234.1,69.85c.15-1.68.34-3.32.57-4.92.23-1.6.52-3.22.88-4.85-1.83.41-3.14.76-3.93,1.07-.79.31-1.39.46-1.79.46-.61,0-.92-.41-.92-1.22,0-.76.5-1.49,1.49-2.18s2.15-1.31,3.47-1.87c.81-.71,1.45-1.36,1.91-1.95.46-.58.84-1.19,1.15-1.83.31-.64.56-1.34.76-2.1s.46-1.68.76-2.75c.15-.46.34-1.21.57-2.25.23-1.04.53-2.1.91-3.17.38-1.07.85-2.01,1.41-2.82.56-.81,1.25-1.22,2.06-1.22s1.22.38,1.22,1.14c0,.41-.08.98-.23,1.72-.15.74-.37,1.69-.65,2.86-.28,1.17-.61,2.61-.99,4.31-.38,1.7-.8,3.73-1.26,6.07.51,0,.99-.01,1.45-.04s.92-.04,1.37-.04h2.02c.79,0,1.55.04,2.29.11.74.08,1.36.22,1.87.42.51.2.76.53.76.99s-.45.84-1.34,1.15-1.93.59-3.13.84c-1.2.26-2.4.5-3.63.73-1.22.23-2.16.47-2.82.73-.56,2.44-1.04,5.05-1.45,7.82-.41,2.77-.61,5.38-.61,7.82,0,.31.01.71.04,1.22.02.51.05,1.03.08,1.57.02.53.08.99.15,1.37.08.38.19.57.34.57.56,0,1.72-.83,3.47-2.48,1.76-1.65,3.63-4.03,5.61-7.14.25-.25.56-.38.92-.38s.66.11.92.34c.25.23.38.52.38.88,0,.26-.13.56-.38.92-.71,1.37-1.57,2.8-2.56,4.27-.99,1.48-2.02,2.8-3.09,3.97-1.07,1.17-2.14,2.14-3.2,2.9s-2.06,1.15-2.98,1.15c-.86,0-1.56-.31-2.1-.92-.53-.61-.97-1.35-1.3-2.21-.33-.86-.56-1.78-.69-2.75-.13-.97-.19-1.83-.19-2.6,0-1.02.04-2.01.11-2.98.08-.97.16-1.88.27-2.75Z"/>
    <path class="st1" d="M251.72,69.85c.15-1.68.34-3.32.57-4.92.23-1.6.52-3.22.88-4.85-1.83.41-3.14.76-3.93,1.07-.79.31-1.39.46-1.79.46-.61,0-.92-.41-.92-1.22,0-.76.5-1.49,1.49-2.18s2.15-1.31,3.47-1.87c.81-.71,1.45-1.36,1.91-1.95.46-.58.84-1.19,1.14-1.83.3-.64.56-1.34.76-2.1s.46-1.68.76-2.75c.15-.46.34-1.21.57-2.25.23-1.04.53-2.1.91-3.17.38-1.07.85-2.01,1.41-2.82.56-.81,1.25-1.22,2.06-1.22s1.22.38,1.22,1.14c0,.41-.08.98-.23,1.72-.15.74-.37,1.69-.65,2.86-.28,1.17-.61,2.61-.99,4.31-.38,1.7-.8,3.73-1.26,6.07.51,0,.99-.01,1.45-.04s.92-.04,1.37-.04h2.02c.79,0,1.55.04,2.29.11.74.08,1.36.22,1.87.42.51.2.76.53.76.99s-.45.84-1.34,1.15-1.93.59-3.13.84c-1.2.26-2.4.5-3.63.73-1.22.23-2.16.47-2.82.73-.56,2.44-1.04,5.05-1.45,7.82-.41,2.77-.61,5.38-.61,7.82,0,.31.01.71.04,1.22.02.51.05,1.03.08,1.57.02.53.08.99.15,1.37.08.38.19.57.34.57.56,0,1.72-.83,3.47-2.48,1.76-1.65,3.63-4.03,5.61-7.14.25-.25.56-.38.92-.38s.66.11.92.34c.25.23.38.52.38.88,0,.26-.13.56-.38.92-.71,1.37-1.57,2.8-2.56,4.27-.99,1.48-2.02,2.8-3.09,3.97-1.07,1.17-2.14,2.14-3.2,2.9s-2.06,1.15-2.98,1.15c-.87,0-1.57-.31-2.1-.92-.53-.61-.97-1.35-1.3-2.21-.33-.86-.56-1.78-.69-2.75s-.19-1.83-.19-2.6c0-1.02.04-2.01.11-2.98.08-.97.16-1.88.27-2.75Z"/>
    <path class="st1" d="M267.44,62.52c.05-.41.2-.71.46-.92.25-.2.51-.31.76-.31.81,0,1.22.59,1.22,1.76,0,1.48-.1,2.96-.3,4.46-.2,1.5-.31,3.01-.31,4.54,0,.56.01,1.09.04,1.6.02.51.11,1.04.27,1.6,1.27-1.02,2.28-2.12,3.01-3.32.74-1.19,1.36-2.45,1.87-3.78.51-1.32.95-2.67,1.34-4.04.38-1.37.85-2.77,1.41-4.2.51-.86,1.2-1.3,2.06-1.3s1.42.37,1.68,1.11c.25.74.38,1.74.38,3.01,0,1.37-.04,2.75-.11,4.12-.08,1.37-.11,2.75-.11,4.12v1.45c1.37-.76,2.85-1.49,4.43-2.18,1.58-.69,3.08-1.03,4.5-1.03.61,0,1.16.11,1.64.34s.73.68.73,1.34c0,.56-.14.98-.42,1.26-.28.28-.57.42-.88.42-.56,0-.92-.25-1.07-.76h-.46c-1.48.41-2.91.98-4.31,1.72-1.4.74-2.74,1.54-4.01,2.4,0,.76.01,1.51.04,2.25.02.74.04,1.46.04,2.17,0,3.21-.16,6.36-.5,9.46-.33,3.1-1.01,6.26-2.02,9.46-.36,1.12-.81,2.25-1.37,3.4-.56,1.15-1.22,2.19-1.98,3.13-.76.94-1.64,1.72-2.63,2.33s-2.1.92-3.32.92c-1.32,0-2.48-.31-3.47-.92s-1.84-1.4-2.56-2.37c-.71-.97-1.25-2.06-1.6-3.28-.36-1.22-.54-2.42-.54-3.59,0-2.7.41-5.2,1.22-7.52.81-2.32,1.92-4.44,3.32-6.37,1.4-1.93,3.03-3.71,4.88-5.34,1.86-1.63,3.83-3.13,5.91-4.5v-1.45c0-.46.02-.92.08-1.37-.05,0-.18.17-.38.5-.2.33-.45.73-.73,1.18s-.57.89-.88,1.3c-.3.41-.53.69-.69.84l-2.82,1.98c-.51.36-1.07.53-1.68.53-.71,0-1.29-.16-1.72-.5-.43-.33-.78-.76-1.03-1.3-.25-.53-.42-1.13-.5-1.79-.08-.66-.11-1.32-.11-1.98,0-1.78.18-3.55.53-5.3.36-1.76.59-3.52.69-5.3ZM276.45,87.71c.15-1.98.23-3.94.23-5.88v-2.52c-3.26,2.59-5.84,5.46-7.75,8.59-1.91,3.13-2.96,6.58-3.17,10.34,0,.46.06,1.04.19,1.76.13.71.33,1.39.61,2.02.28.64.64,1.19,1.07,1.68.43.48.98.73,1.64.73.71,0,1.32-.24,1.83-.73.51-.48.95-1.07,1.34-1.76s.71-1.4.99-2.14c.28-.74.5-1.36.65-1.87.51-1.37.97-2.94,1.37-4.69.41-1.76.74-3.6.99-5.53Z"/>
  </g>
  <g>
    <path class="st0" d="M294.95,174.17c.06-.47.23-.81.52-1.05.29-.23.58-.35.87-.35.64,0,1.1.41,1.4,1.22v.09c2.15-1.51,4.19-2.59,6.11-3.23,1.92-.64,3.75-.96,5.5-.96,2.62,0,4.97.7,7.07,2.09,2.09,1.4,3.85,3.2,5.28,5.41,1.43,2.21,2.52,4.68,3.27,7.42.76,2.74,1.13,5.47,1.13,8.2,0,3.9-.61,7.9-1.83,12-1.22,4.1-2.91,7.83-5.06,11.17-2.15,3.35-4.66,6.1-7.51,8.25-2.85,2.15-5.91,3.23-9.16,3.23-.47,0-1.18-.07-2.14-.22-.96-.15-1.93-.36-2.92-.65-.99-.29-1.85-.7-2.57-1.22-.73-.52-1.09-1.13-1.09-1.83,0-.47.12-.9.35-1.31.23-.41.52-.61.87-.61.52,0,1.02.41,1.48,1.22l-.52.35c.93.41,1.86.7,2.79.87.93.17,1.8.26,2.62.26,2.97,0,5.66-.95,8.07-2.84,2.41-1.89,4.46-4.31,6.15-7.24,1.69-2.94,3-6.21,3.93-9.82.93-3.61,1.4-7.16,1.4-10.65,0-2.27-.23-4.49-.7-6.68-.47-2.18-1.19-4.12-2.18-5.8-.99-1.69-2.23-3.04-3.71-4.06-1.48-1.02-3.27-1.53-5.37-1.53-1.34,0-2.55.16-3.62.48-1.08.32-2.05.74-2.92,1.27-.87.52-1.69,1.11-2.44,1.75-.76.64-1.48,1.25-2.18,1.83-.12,2.74-.29,5.44-.52,8.12-.23,2.68-.49,5.32-.79,7.94-.12,1.05-.29,2.53-.52,4.45-.23,1.92-.54,4.01-.92,6.28-.38,2.27-.84,4.57-1.4,6.89-.55,2.33-1.24,4.44-2.05,6.33-.82,1.89-1.78,3.45-2.88,4.67-1.11,1.22-2.36,1.83-3.75,1.83-1.16,0-2.24-.42-3.23-1.27-.99-.84-1.83-1.95-2.53-3.32-.7-1.37-1.25-2.95-1.66-4.76-.41-1.8-.61-3.67-.61-5.59,0-3.43.51-6.88,1.53-10.34,1.02-3.46,2.36-6.78,4.01-9.95,1.66-3.17,3.56-6.14,5.72-8.9,2.15-2.76,4.36-5.13,6.63-7.11.06-.41.09-.8.09-1.18v-1.18ZM292.77,196.78c.35-1.98.65-3.97.92-5.98.26-2.01.48-4.03.65-6.07-3.67,4.13-6.62,8.7-8.86,13.7-2.24,5-3.36,10.09-3.36,15.27,0,.58.03,1.35.09,2.31.06.96.17,1.91.35,2.84.17.93.44,1.76.79,2.49.35.73.81,1.18,1.4,1.35.52,0,.97-.33,1.35-1,.38-.67.68-1.24.92-1.7,1.69-3.55,2.91-7.32,3.67-11.3.76-3.98,1.45-7.96,2.09-11.91Z"/>
    <path class="st0" d="M333.7,202.97c0,.06.03.12.09.17,2.56-1.16,5.25-2.15,8.07-2.97,2.82-.81,5.57-1.54,8.25-2.18,1.1,0,1.66.47,1.66,1.4,0,.52-.29.96-.87,1.31-1.86.76-3.7,1.53-5.5,2.31-1.8.79-3.61,1.61-5.41,2.49.52.87.79,1.86.79,2.97,0,.87-.2,1.99-.61,3.36-.41,1.37-.97,2.72-1.7,4.06-.73,1.34-1.64,2.57-2.75,3.71-1.11,1.13-2.36,1.96-3.75,2.49-.58.23-1.21.35-1.88.35s-1.35.06-2.05.17c-.99-.12-1.91-.74-2.75-1.88-.84-1.13-1.27-2.49-1.27-4.06,0-1.22.28-2.72.83-4.49.55-1.77,1.24-3.49,2.05-5.15.81-1.66,1.67-3.08,2.57-4.28.9-1.19,1.73-1.79,2.49-1.79.52,0,.96.26,1.31.79l.44,1.13v.09ZM333,208.3c-.99-.52-1.57-1.19-1.75-2.01-.82,1.69-1.37,3.48-1.66,5.37-.29,1.89-.44,3.74-.44,5.54.93-.12,1.77-.6,2.53-1.44.76-.84,1.4-1.76,1.92-2.75.52-.99.95-1.92,1.27-2.79.32-.87.48-1.37.48-1.48v-.17c-.35-.12-.76-.16-1.22-.13-.47.03-.84-.01-1.13-.13Z"/>
    <path class="st0" d="M351.85,200.53c-.52.99-1.03,2.24-1.53,3.75-.49,1.51-.96,3.08-1.4,4.71-.44,1.63-.79,3.2-1.05,4.71-.26,1.51-.39,2.74-.39,3.67v.96c1.22-1.22,2.34-2.69,3.36-4.41,1.02-1.72,1.93-3.5,2.75-5.37.29-1.34.68-2.6,1.18-3.8.49-1.19,1.03-2.37,1.61-3.53l.09.09.26-.35c.64-.58,1.37-.87,2.18-.87.7,0,1.29.26,1.79.79.49.52.74,1.25.74,2.18,0,.52-.25,1.35-.74,2.49-.49,1.13-.97,2.23-1.44,3.27-.29,1.22-.54,2.53-.74,3.93-.2,1.4-.31,2.62-.31,3.67s.09,1.79.26,2.23c.17.44.49,1,.96,1.7l2.27.44c.06,0,.12.02.17.04.06.03.12.04.17.04.87,0,1.82-.38,2.84-1.13,1.02-.76,1.99-1.61,2.92-2.57.93-.96,1.76-1.92,2.49-2.88.73-.96,1.21-1.67,1.44-2.14,1.1-2.21,1.92-4.49,2.44-6.85.52-2.36.79-4.73.79-7.11v-1.22c0-.64.07-1.19.22-1.66.14-.46.62-.7,1.44-.7.47,0,.97.12,1.53.35.55.23,1.08.51,1.57.83.49.32.92.65,1.27,1s.52.67.52.96c0,.87-.61,1.31-1.83,1.31l-1.4-.52c.06.23.09.55.09.96,0,2.85-.26,5.67-.79,8.47-.35,1.86-.99,3.86-1.92,5.98-.93,2.12-2.09,4.09-3.49,5.89-1.4,1.8-3.04,3.3-4.93,4.49-1.89,1.19-3.97,1.79-6.24,1.79-2.62,0-4.52-.64-5.72-1.92-1.19-1.28-1.93-2.88-2.23-4.8-.99,1.16-1.98,2.11-2.97,2.84-.99.73-1.98,1.15-2.97,1.27-1.63,0-2.69-.54-3.19-1.61-.5-1.08-.74-2.28-.74-3.62,0-1.1.09-2.06.26-2.88.12-.99.45-2.47,1-4.45.55-1.98,1.22-3.97,2.01-5.98.79-2.01,1.61-3.77,2.49-5.28.87-1.51,1.72-2.27,2.53-2.27.41,0,.73.13.96.39.23.26.41.54.52.83v.44c0,.87-.38,1.37-1.13,1.48Z"/>
    <path class="st0" d="M384.93,201.92c.06.7.12,1.4.17,2.09.06.7.09,1.4.09,2.09,0,.17-.01.36-.04.57-.03.2-.04.42-.04.65.41-.76.96-1.7,1.66-2.84s1.44-2.23,2.23-3.27c.79-1.05,1.57-1.95,2.36-2.71.79-.76,1.47-1.13,2.05-1.13,1.4,0,2.38.38,2.97,1.13.58.76.87,1.48.87,2.18,0,2.5-.23,4.96-.7,7.37-.47,2.42-.7,4.84-.7,7.29,0,.64.01,1.28.04,1.92.03.64.1,1.28.22,1.92l1.4,1.05,4.8-1.48c.35-.12.58-.17.7-.17.99,0,1.48.47,1.48,1.4,0,.41-.31.84-.92,1.31-.61.47-1.32.89-2.14,1.27-.82.38-1.64.68-2.49.92-.84.23-1.5.35-1.96.35-1.63,0-3.04-.84-4.23-2.53-1.19-1.69-1.79-4.07-1.79-7.16,0-1.22.06-2.41.17-3.58.12-1.16.23-2.15.35-2.97-1.11,1.46-2.09,3-2.97,4.63-.87,1.63-1.72,3.26-2.53,4.89-.29.52-.58,1.15-.87,1.88-.29.73-.63,1.41-1,2.05-.38.64-.83,1.18-1.35,1.61-.52.44-1.13.65-1.83.65-.64,0-1.16-.2-1.57-.61-.41-.41-.67-1.02-.79-1.83,0-1.05.12-2.17.35-3.36.23-1.19.51-2.39.83-3.58.32-1.19.65-2.34,1-3.45.35-1.1.64-2.15.87-3.14v-.09c.06-.52.1-1.15.13-1.88.03-.73.09-1.42.17-2.09.09-.67.23-1.24.44-1.7.2-.47.57-.7,1.09-.7.76,0,1.22.35,1.4,1.05h.09Z"/>
    <path class="st0" d="M422.89,181.33c-.41,2.04-1.08,4.47-2.01,7.29-.93,2.82-2.02,5.66-3.27,8.51-1.25,2.85-2.66,5.54-4.23,8.07-1.57,2.53-3.17,4.49-4.8,5.89.06,1.51.23,3.01.52,4.49.29,1.48,1.1,2.66,2.44,3.53,2.62-.52,4.97-1.5,7.07-2.92,2.09-1.43,3.98-3.19,5.67-5.28.41-.29.76-.44,1.05-.44.41,0,.76.13,1.05.39.29.26.44.63.44,1.09,0,.23-.06.47-.17.7-.76,1.11-1.72,2.28-2.88,3.53-1.16,1.25-2.43,2.4-3.8,3.45-1.37,1.05-2.78,1.91-4.23,2.57-1.46.67-2.85,1-4.19,1-2.44,0-4.39-1.34-5.85-4.01-1.45-2.68-2.18-6.63-2.18-11.87,0-2.15.23-4.99.7-8.51.46-3.52,1.24-7.1,2.31-10.73,1.08-3.64,2.49-7.03,4.23-10.17,1.75-3.14,3.9-5.44,6.46-6.89.76-.46,1.45-.7,2.09-.7,1.63,0,2.75.64,3.36,1.92.61,1.28.92,2.62.92,4.01,0,.99-.07,1.92-.22,2.79-.15.87-.31,1.63-.48,2.27ZM412.86,187.18c-2.74,6.28-4.19,12.8-4.36,19.55.81-1.16,1.51-2.39,2.09-3.67.58-1.28,1.13-2.59,1.66-3.93.58-1.4,1.22-3.04,1.92-4.93.7-1.89,1.37-3.84,2.01-5.85.64-2.01,1.18-4.01,1.61-6.02.44-2.01.65-3.8.65-5.37-1.34,1.46-2.41,3.07-3.23,4.84-.82,1.78-1.6,3.56-2.36,5.37Z"/>
    <path class="st0" d="M431.97,202.97c0,.06.03.12.09.17,2.56-1.16,5.25-2.15,8.07-2.97,2.82-.81,5.57-1.54,8.25-2.18,1.1,0,1.66.47,1.66,1.4,0,.52-.29.96-.87,1.31-1.86.76-3.7,1.53-5.5,2.31-1.8.79-3.61,1.61-5.41,2.49.52.87.79,1.86.79,2.97,0,.87-.2,1.99-.61,3.36-.41,1.37-.97,2.72-1.7,4.06-.73,1.34-1.64,2.57-2.75,3.71-1.11,1.13-2.36,1.96-3.75,2.49-.58.23-1.21.35-1.88.35s-1.35.06-2.05.17c-.99-.12-1.91-.74-2.75-1.88-.84-1.13-1.27-2.49-1.27-4.06,0-1.22.28-2.72.83-4.49.55-1.77,1.24-3.49,2.05-5.15.81-1.66,1.67-3.08,2.57-4.28.9-1.19,1.73-1.79,2.49-1.79.52,0,.96.26,1.31.79l.44,1.13v.09ZM431.27,208.3c-.99-.52-1.57-1.19-1.75-2.01-.82,1.69-1.37,3.48-1.66,5.37-.29,1.89-.44,3.74-.44,5.54.93-.12,1.77-.6,2.53-1.44.76-.84,1.4-1.76,1.92-2.75.52-.99.95-1.92,1.27-2.79.32-.87.48-1.37.48-1.48v-.17c-.35-.12-.76-.16-1.22-.13-.47.03-.84-.01-1.13-.13Z"/>
    <path class="st0" d="M459.11,202.88c0,.17-.01.32-.04.44-.03.12-.07.23-.13.35.12,0,.22-.01.31-.04.09-.03.19-.04.31-.04.81,0,1.43.28,1.83.83.41.55.61,1.3.61,2.23-.17.76-.42,1.72-.74,2.88-.32,1.16-.65,2.37-1,3.62-.35,1.25-.65,2.49-.92,3.71-.26,1.22-.39,2.3-.39,3.23,0,.52.06,1.02.17,1.48.87-.06,1.69-.41,2.44-1.05.76-.64,1.48-1.32,2.18-2.05.7-.73,1.34-1.4,1.92-2.01.58-.61,1.1-.92,1.57-.92.93,0,1.4.47,1.4,1.4,0,.35-.12.73-.35,1.13-.29.29-.77.84-1.44,1.66-.67.82-1.44,1.66-2.31,2.53-.87.87-1.85,1.66-2.92,2.36-1.08.7-2.14,1.05-3.19,1.05-.82,0-1.48-.25-2.01-.74-.52-.49-.92-1.12-1.18-1.88-.26-.76-.44-1.54-.52-2.36-.09-.81-.13-1.57-.13-2.27-.35.35-.8.76-1.35,1.22-.55.47-1.15.93-1.79,1.4-.64.47-1.28.86-1.92,1.18-.64.32-1.19.48-1.66.48-1.51,0-2.73-.49-3.67-1.48-.93-.99-1.4-2.36-1.4-4.1,0-2.44.36-4.8,1.09-7.07.73-2.27,1.67-4.29,2.84-6.07,1.16-1.77,2.46-3.19,3.88-4.23,1.43-1.05,2.81-1.57,4.15-1.57s2.33.44,3.14,1.31c.81.87,1.22,1.89,1.22,3.05v.35ZM447.94,216.67c1.22-.7,2.21-1.57,2.97-2.62.76-1.05,1.45-2.15,2.09-3.32.64-1.16,1.28-2.3,1.92-3.4.64-1.1,1.43-2.06,2.36-2.88-.64-.23-.96-.7-.96-1.4l-.09-.61-2.01-.7c-1.05.7-1.96,1.57-2.75,2.62-.79,1.05-1.44,2.2-1.96,3.45-.52,1.25-.92,2.55-1.18,3.88-.26,1.34-.39,2.65-.39,3.93v1.05Z"/>
    <path class="st0" d="M478.83,201.05c.64.12,1.19.35,1.66.7l.35-.79c.58-2.68,1.21-5.35,1.88-8.03.67-2.68,1.38-5.32,2.14-7.94.23-.76.54-1.83.92-3.23.38-1.4.84-2.75,1.4-4.06.55-1.31,1.24-2.46,2.05-3.45.81-.99,1.77-1.48,2.88-1.48s1.88.35,2.31,1.05c.44.7.65,1.63.65,2.79,0,.87-.1,1.8-.31,2.79-.2.99-.44,1.98-.7,2.97-.26.99-.55,1.95-.87,2.88-.32.93-.6,1.78-.83,2.53-.82,2.44-1.78,4.99-2.88,7.64-1.11,2.65-2.42,5.28-3.93,7.9-.41,2.21-.8,4.41-1.18,6.59-.38,2.18-.74,4.38-1.09,6.59v-.17c-.06.58-.12,1.16-.17,1.75-.06.58-.09,1.16-.09,1.75,0,1.51.23,2.76.7,3.75.64,0,1.4-.35,2.27-1.05.87-.7,1.75-1.51,2.62-2.44.87-.93,1.67-1.83,2.4-2.71.73-.87,1.27-1.48,1.61-1.83.41-.29.76-.44,1.05-.44.93,0,1.4.47,1.4,1.4,0,.35-.12.73-.35,1.13-.99,1.05-1.96,2.12-2.92,3.23-.96,1.11-1.91,2.12-2.84,3.05-.93.93-1.83,1.7-2.71,2.31-.87.61-1.75.92-2.62.92-.82,0-1.51-.28-2.09-.83-.58-.55-1.05-1.31-1.4-2.27s-.6-2.09-.74-3.4c-.15-1.31-.22-2.72-.22-4.23v-1.66c0-.52.03-1.05.09-1.57-.7.93-1.54,1.99-2.53,3.19-.99,1.19-1.99,2.33-3.01,3.4-1.02,1.08-2.02,1.98-3.01,2.71-.99.73-1.86,1.09-2.62,1.09h-.44c-.99-.52-1.67-.9-2.05-1.13-.38-.23-.63-.76-.74-1.57,0-2.15.39-4.41,1.18-6.76.79-2.36,1.82-4.49,3.1-6.41,1.28-1.92,2.72-3.5,4.32-4.76,1.6-1.25,3.24-1.88,4.93-1.88h.44ZM469.23,217.81c1.8-1.86,3.53-3.96,5.19-6.28,1.66-2.33,3.24-4.77,4.76-7.33-.17-.06-.41-.09-.7-.09h-.09c-2.79,1.28-4.86,3.16-6.2,5.63-1.34,2.47-2.33,5.16-2.97,8.07ZM483.37,215.63c-.06.06-.09.17-.09.35.06-.06.09-.17.09-.35ZM491.14,182.55c0-.06.01-.1.04-.13.03-.03.04-.07.04-.13-.06.06-.09.15-.09.26v.09-.09Z"/>
    <path class="st0" d="M496.99,213.36c-.35.47-.76.7-1.22.7-.41,0-.74-.14-1-.44-.26-.29-.39-.67-.39-1.13v-.44c.7-1.57,1.63-3.21,2.79-4.93,1.16-1.72,2.36-3.36,3.58-4.93,1.22-1.57,2.36-3.02,3.4-4.36,1.05-1.34,1.8-2.44,2.27-3.32,0-.58.33-.99,1-1.22.67-.23,1.12-.35,1.35-.35.7,0,1.27.23,1.7.7.44.47.65,1.16.65,2.09-.81,2.91-1.22,5.79-1.22,8.64,0,1.51.14,2.97.44,4.36.29,1.4.64,2.85,1.05,4.36,1.63-.81,3.24-1.57,4.84-2.27,1.6-.7,3.19-1.4,4.76-2.09.35-.12.61-.17.78-.17.47,0,.81.15,1.05.44.23.29.35.61.35.96,0,.41-.41.9-1.22,1.48-.82.58-1.79,1.18-2.92,1.79-1.14.61-2.34,1.24-3.62,1.88-1.28.64-2.39,1.25-3.32,1.83,0,1.86-.28,3.45-.83,4.76-.55,1.31-1.25,2.37-2.09,3.19-.84.81-1.76,1.4-2.75,1.75-.99.35-1.92.52-2.79.52-1.34,0-2.44-.36-3.32-1.09-.87-.73-1.31-1.67-1.31-2.84,0-.7.28-1.43.83-2.18.55-.76,1.22-1.48,2.01-2.18.79-.7,1.57-1.31,2.36-1.83.79-.52,1.44-.93,1.96-1.22-.35-2.09-.67-4.07-.96-5.93-.29-1.86-.44-3.69-.44-5.5-1.4,1.4-2.79,2.82-4.19,4.28-1.4,1.45-2.59,3.03-3.58,4.71Z"/>
  </g>
  <g>
    <path class="st0" d="M44.26,85.73c0-1.05.32-1.86.95-2.44.63-.58,1.31-.87,2.05-.87,1.15,0,1.89.74,2.21,2.21l.16,5.36c2.1-2.62,4.33-5.28,6.7-7.95,2.36-2.68,4.83-5.07,7.4-7.17,2.57-2.1,5.25-3.81,8.03-5.12,2.78-1.31,5.65-1.97,8.59-1.97,1.78,0,3.62.32,5.51.95,6.2,2.1,10.53,5.23,13,9.37,2.47,4.15,3.7,8.69,3.7,13.63,0,3.99-.58,8.03-1.73,12.13-1.16,4.1-2.63,7.96-4.41,11.58-1.79,3.62-3.7,6.88-5.75,9.77-2.05,2.89-3.91,5.07-5.59,6.54-2,1.68-4.54,3.21-7.64,4.57-3.1,1.37-6.22,2.05-9.37,2.05-2.1,0-4.17-.4-6.22-1.21-2.05-.81-3.86-2.18-5.44-4.13.1-.96.42-1.75.95-2.38.52-.63,1.15-.95,1.89-.95.84,0,1.57.47,2.21,1.42,1.05.32,2.05.58,2.99.79.94.21,1.94.32,2.99.32,3.04,0,5.91-.86,8.59-2.59,2.68-1.73,5.09-3.87,7.25-6.44,2.15-2.57,3.99-5.31,5.51-8.25,1.52-2.93,2.7-5.65,3.54-8.17.73-2.2,1.26-4.4,1.58-6.6.32-2.2.47-4.29.47-6.28,0-4.71-.97-8.56-2.91-11.54-1.94-2.98-4.75-4.48-8.43-4.48-2.84,0-5.75.79-8.74,2.36-2.99,1.57-5.86,3.62-8.59,6.14-2.73,2.52-5.33,5.38-7.8,8.59-2.47,3.21-4.65,6.43-6.54,9.69.52,4.73.95,8.98,1.26,12.76.31,3.78.47,7.67.47,11.66,0,5.15-.34,10.22-1.02,15.2-.68,4.99-1.76,9.45-3.23,13.39-1.47,3.94-3.31,7.11-5.51,9.53-2.21,2.41-4.88,3.62-8.04,3.62-4.2,0-7.06-1.68-8.59-5.04-1.52-3.36-2.28-8.03-2.28-14.02,0-3.36.16-6.46.47-9.29.32-2.84.68-4.88,1.1-6.14,1.05-3.47,2.26-6.8,3.62-10,1.36-3.2,2.84-6.35,4.41-9.45,1.57-3.1,3.25-6.25,5.04-9.45,1.79-3.2,3.62-6.54,5.51-10-.11-1.99-.16-3.94-.16-5.83s-.05-3.83-.16-5.83ZM44.42,140.39c.1-2.1.21-3.99.32-5.67.1-1.68.21-3.28.32-4.81.1-1.52.21-3.04.32-4.57.1-1.52.16-3.18.16-4.96,0-.73-.03-1.47-.08-2.21-.05-.73-.08-1.52-.08-2.36-1.37,3.05-2.81,6.17-4.33,9.37-1.52,3.2-2.91,6.49-4.18,9.85-1.26,3.36-2.31,6.77-3.15,10.24-.84,3.47-1.26,6.93-1.26,10.4,0,2.52.26,4.36.79,5.51.52,1.16,1.15,1.73,1.89,1.73s1.63-.63,2.68-1.89c1.05-1.26,2.02-2.91,2.91-4.96.89-2.05,1.68-4.44,2.36-7.17.68-2.73,1.13-5.57,1.34-8.51Z"/>
    <path class="st0" d="M87.11,153.94c-.11,0-.18.03-.24.08-.05.05-.18.08-.39.08-.84,0-1.5-.29-1.97-.87-.47-.58-.71-1.23-.71-1.97,0-.95.37-1.73,1.1-2.36.95-1.68,2.18-4.1,3.7-7.25,1.52-3.15,3.07-6.4,4.65-9.77,1.58-3.36,3.1-6.54,4.57-9.53,1.47-2.99,2.62-5.17,3.47-6.54.84-.84,1.84-1.26,2.99-1.26.95,0,1.99.32,3.15.95,2.1,2.84,3.88,5.28,5.36,7.33,1.47,2.05,2.68,3.94,3.62,5.67.95,1.73,1.63,3.41,2.05,5.04.42,1.63.63,3.39.63,5.28,0,2.31-.29,4.88-.87,7.72-.58,2.84-1.29,6.46-2.13,10.87,2.52-.52,4.99-1.26,7.4-2.21,2.41-.95,4.83-1.89,7.25-2.84.42-.21.84-.32,1.26-.32.84,0,1.47.26,1.89.79.42.53.63,1.1.63,1.73,0,.84-.79,1.81-2.36,2.91s-3.44,2.23-5.59,3.39c-2.15,1.16-4.39,2.23-6.7,3.23-2.31,1-4.15,1.76-5.51,2.28h-1.57c-1.89,0-3.39-.92-4.49-2.76-1.1-1.84-1.65-3.54-1.65-5.12,0-1.78.26-3.57.79-5.36.52-1.78.89-3.57,1.1-5.36.32-2.31.47-4.41.47-6.3,0-2.84-.37-5.46-1.1-7.88-.74-2.41-2-5.04-3.78-7.88-.42.63-1.05,1.71-1.89,3.23-.84,1.52-1.76,3.28-2.76,5.28-1,2-2.07,4.07-3.23,6.22-1.16,2.15-2.28,4.17-3.39,6.07-1.1,1.89-2.15,3.52-3.15,4.88-1,1.37-1.87,2.21-2.6,2.52Z"/>
    <path class="st0" d="M149.18,127c0,.11.05.21.16.32,4.62-2.1,9.48-3.88,14.57-5.36,5.09-1.47,10.06-2.78,14.89-3.94,1.99,0,2.99.84,2.99,2.52,0,.94-.53,1.73-1.58,2.36-3.36,1.37-6.67,2.76-9.93,4.18-3.26,1.42-6.51,2.91-9.77,4.49.95,1.57,1.42,3.36,1.42,5.36,0,1.58-.37,3.6-1.1,6.07-.74,2.47-1.76,4.91-3.07,7.33-1.32,2.42-2.97,4.65-4.96,6.7-2,2.05-4.25,3.54-6.77,4.49-1.05.42-2.18.63-3.39.63s-2.44.11-3.7.32c-1.79-.21-3.44-1.34-4.96-3.39-1.52-2.05-2.28-4.49-2.28-7.33,0-2.21.5-4.91,1.5-8.11,1-3.2,2.23-6.3,3.7-9.29,1.47-2.99,3.02-5.57,4.65-7.72,1.63-2.15,3.12-3.23,4.49-3.23.95,0,1.73.47,2.36,1.42l.79,2.05v.16ZM147.92,136.61c-1.79-.95-2.84-2.15-3.15-3.62-1.47,3.05-2.47,6.28-2.99,9.69-.53,3.41-.79,6.75-.79,10,1.68-.21,3.2-1.08,4.57-2.6,1.36-1.52,2.52-3.18,3.47-4.96.95-1.79,1.71-3.47,2.28-5.04.58-1.57.87-2.47.87-2.68v-.32c-.63-.21-1.37-.29-2.21-.24-.84.05-1.52-.02-2.05-.24Z"/>
    <path class="st0" d="M176.75,140.24c.32-3.47.71-6.85,1.18-10.16.47-3.31,1.08-6.64,1.81-10-3.78.84-6.49,1.58-8.11,2.21-1.63.63-2.86.94-3.7.94-1.26,0-1.89-.84-1.89-2.52,0-1.58,1.02-3.07,3.07-4.49,2.05-1.42,4.44-2.7,7.17-3.86,1.68-1.47,2.99-2.81,3.94-4.02.95-1.21,1.73-2.47,2.36-3.78.63-1.31,1.15-2.76,1.57-4.33.42-1.58.95-3.47,1.58-5.67.32-.94,1.28-3.98,2.07-6.18s1.76-4.15,2.91-5.83c1.15-1.68,2.57-2.52,4.25-2.52s2.52.79,2.52,2.36c0,.84-.16,2.02-.47,3.54-.32,1.52-1.6,6.29-2.39,9.81-.79,3.52-1.65,7.7-2.6,12.52,1.05,0,2.05-.02,2.99-.08.94-.05,1.89-.08,2.84-.08h4.17c1.63,0,3.2.08,4.73.24,1.52.16,2.81.45,3.86.87,1.05.42,1.57,1.1,1.57,2.05s-.92,1.73-2.76,2.36c-1.84.63-3.99,1.21-6.46,1.73-2.47.53-4.96,1.02-7.48,1.5-2.52.47-4.46.97-5.83,1.5-1.16,5.04-2.15,10.43-2.99,16.15-.84,5.73-1.26,11.11-1.26,16.15,0,.63.02,1.47.08,2.52.05,1.05.1,2.13.16,3.23.05,1.1.16,2.05.32,2.84.16.79.39,1.18.71,1.18,1.15,0,3.54-1.71,7.17-5.12,3.62-3.41,7.48-8.32,11.58-14.73.52-.52,1.15-.79,1.89-.79s1.36.24,1.89.71c.52.47.79,1.08.79,1.81,0,.53-.26,1.16-.79,1.89-1.47,2.84-3.23,5.78-5.28,8.82-2.05,3.05-4.18,5.78-6.38,8.19-2.21,2.42-4.41,4.41-6.62,5.99-2.21,1.57-4.25,2.36-6.14,2.36-1.79,0-3.23-.63-4.33-1.89s-2-2.78-2.68-4.57c-.68-1.79-1.16-3.68-1.42-5.67-.26-1.99-.39-3.78-.39-5.36,0-2.1.08-4.15.24-6.14.16-1.99.34-3.88.55-5.67Z"/>
    <path class="st0" d="M232.99,129.37c-1.05,2.21-2.18,4.41-3.39,6.62-1.21,2.21-2.57,4.25-4.1,6.14-1.52,1.89-3.21,3.54-5.04,4.96-1.84,1.42-3.91,2.44-6.22,3.07,0,2.21.32,4.39.95,6.54.63,2.15,1.94,3.23,3.94,3.23.52,0,1.08-.05,1.65-.16.58-.1,1.23-.42,1.97-.95.63-.32,1.55-.89,2.76-1.73,1.21-.84,2.52-1.81,3.94-2.91,1.42-1.1,2.78-2.31,4.1-3.62s2.29-2.65,2.91-4.02c.32-.73.79-1.1,1.42-1.1.73,0,1.42.32,2.05.94s.95,1.37.95,2.21c0,.74-.63,1.89-1.89,3.47-1.26,1.57-2.71,3.21-4.33,4.88-1.63,1.68-3.31,3.26-5.04,4.73-1.73,1.47-3.07,2.41-4.02,2.84-.32.1-1.24.58-2.76,1.42-1.52.84-2.81,1.26-3.86,1.26-2.31,0-4.31-.47-5.99-1.42-1.68-.94-3.07-2.21-4.17-3.78-1.1-1.58-1.92-3.39-2.44-5.44-.53-2.05-.79-4.17-.79-6.38-.63-.32-.95-.89-.95-1.73,0-.73.26-1.36.79-1.89,0-1.26.05-2.54.16-3.86.1-1.31.37-2.65.79-4.02.63-2.21,1.5-4.83,2.6-7.88,1.1-3.04,2.49-5.96,4.18-8.74,1.68-2.78,3.68-5.14,5.99-7.09,2.31-1.94,4.94-2.91,7.88-2.91s4.94.97,5.99,2.91c1.05,1.94,1.58,4.17,1.58,6.7,0,1.47-.13,2.91-.39,4.33-.26,1.42-.66,2.55-1.18,3.39ZM225.43,122.75c-1.05.84-2.1,2.07-3.15,3.7-1.05,1.63-2,3.39-2.84,5.28-.84,1.89-1.63,3.84-2.36,5.83-.74,2-1.31,3.83-1.73,5.51,1.26-1.15,2.84-3.36,4.73-6.62.42-.73.95-1.65,1.58-2.76.63-1.1,1.21-2.31,1.73-3.62.52-1.31,1-2.6,1.42-3.86.42-1.26.63-2.41.63-3.47Z"/>
    <path class="st0" d="M266.23,128.74c0,.84-.26,1.52-.79,2.05-.53.53-1.05.79-1.58.79-1.16,0-2.05-.58-2.68-1.73l-.63-7.56h-1.73c-1.58.94-3.13,2.42-4.65,4.41-1.52,2-2.91,4.23-4.18,6.7-1.26,2.47-2.28,4.99-3.07,7.56-.79,2.57-1.18,4.96-1.18,7.17,0,.32.05.87.16,1.65.1.79.29,1.6.55,2.44.26.84.65,1.6,1.18,2.28.52.68,1.21,1.08,2.05,1.18,1.26-.21,2.73-.87,4.41-1.97,1.68-1.1,3.33-2.28,4.96-3.54,1.63-1.26,3.18-2.39,4.65-3.39,1.47-1,2.62-1.5,3.47-1.5,1.78,0,2.68.84,2.68,2.52,0,.63-.26,1.32-.79,2.05-1.37,1.16-2.81,2.57-4.33,4.25-1.52,1.68-3.1,3.28-4.73,4.8-1.63,1.52-3.36,2.81-5.2,3.86-1.84,1.05-3.7,1.57-5.59,1.57-2,0-3.81-.5-5.43-1.5-1.63-1-3.02-2.26-4.18-3.78-1.16-1.52-2.05-3.2-2.68-5.04-.63-1.84-.95-3.65-.95-5.43,0-3.47.55-7.11,1.65-10.95,1.1-3.83,2.65-7.4,4.65-10.71,1.99-3.31,4.36-6.04,7.09-8.19,2.73-2.15,5.67-3.23,8.82-3.23,2.41,0,4.38.82,5.91,2.44,1.52,1.63,2.28,4.07,2.28,7.32v1.65c0,.58-.05,1.18-.16,1.81Z"/>
    <path class="st0" d="M280.56,140.24c.32-3.47.71-6.85,1.18-10.16.47-3.31,1.08-6.64,1.81-10-3.78.84-6.49,1.58-8.11,2.21-1.63.63-2.86.94-3.7.94-1.26,0-1.89-.84-1.89-2.52,0-1.58,1.02-3.07,3.07-4.49,2.05-1.42,4.44-2.7,7.17-3.86,1.68-1.47,2.99-2.81,3.94-4.02.95-1.21,1.73-2.47,2.36-3.78.63-1.31,1.15-2.76,1.57-4.33.42-1.58.95-3.47,1.58-5.67.32-.94.71-2.49,1.18-4.65.47-2.15,1.1-4.33,1.89-6.54s1.76-4.15,2.91-5.83c1.15-1.68,2.57-2.52,4.25-2.52s2.52.79,2.52,2.36c0,.84-.16,2.02-.47,3.54-.32,1.52-.76,3.49-1.34,5.91-.58,2.42-1.26,5.38-2.05,8.9-.79,3.52-1.65,7.7-2.6,12.52,1.05,0,2.05-.02,2.99-.08.94-.05,1.89-.08,2.84-.08h4.17c1.63,0,3.2.08,4.73.24,1.52.16,2.81.45,3.86.87,1.05.42,1.57,1.1,1.57,2.05s-.92,1.73-2.76,2.36c-1.84.63-3.99,1.21-6.46,1.73-2.47.53-4.96,1.02-7.48,1.5-2.52.47-4.46.97-5.83,1.5-1.16,5.04-2.15,10.43-2.99,16.15-.84,5.73-1.26,11.11-1.26,16.15,0,.63.02,1.47.08,2.52.05,1.05.1,2.13.16,3.23.05,1.1.16,2.05.32,2.84.16.79.39,1.18.71,1.18,1.15,0,3.54-1.71,7.17-5.12,3.62-3.41,7.48-8.32,11.58-14.73.52-.52,1.15-.79,1.89-.79s1.36.24,1.89.71c.52.47.79,1.08.79,1.81,0,.53-.26,1.16-.79,1.89-1.47,2.84-3.23,5.78-5.28,8.82-2.05,3.05-4.18,5.78-6.38,8.19-2.21,2.42-4.41,4.41-6.62,5.99-2.21,1.57-4.25,2.36-6.14,2.36-1.79,0-3.23-.63-4.33-1.89s-2-2.78-2.68-4.57c-.68-1.79-1.16-3.68-1.42-5.67-.26-1.99-.39-3.78-.39-5.36,0-2.1.08-4.15.24-6.14.16-1.99.34-3.88.55-5.67Z"/>
    <path class="st0" d="M336.8,129.37c-1.05,2.21-2.18,4.41-3.39,6.62-1.21,2.21-2.57,4.25-4.1,6.14-1.52,1.89-3.21,3.54-5.04,4.96-1.84,1.42-3.91,2.44-6.22,3.07,0,2.21.32,4.39.95,6.54.63,2.15,1.94,3.23,3.94,3.23.52,0,1.08-.05,1.65-.16.58-.1,1.23-.42,1.97-.95.63-.32,1.55-.89,2.76-1.73,1.21-.84,2.52-1.81,3.94-2.91,1.42-1.1,2.78-2.31,4.1-3.62s2.29-2.65,2.91-4.02c.32-.73.79-1.1,1.42-1.1.73,0,1.42.32,2.05.94s.95,1.37.95,2.21c0,.74-.63,1.89-1.89,3.47-1.26,1.57-2.71,3.21-4.33,4.88-1.63,1.68-3.31,3.26-5.04,4.73-1.73,1.47-3.07,2.41-4.02,2.84-.32.1-1.24.58-2.76,1.42-1.52.84-2.81,1.26-3.86,1.26-2.31,0-4.31-.47-5.99-1.42-1.68-.94-3.07-2.21-4.17-3.78-1.1-1.58-1.92-3.39-2.44-5.44-.53-2.05-.79-4.17-.79-6.38-.63-.32-.95-.89-.95-1.73,0-.73.26-1.36.79-1.89,0-1.26.05-2.54.16-3.86.1-1.31.37-2.65.79-4.02.63-2.21,1.5-4.83,2.6-7.88,1.1-3.04,2.49-5.96,4.18-8.74,1.68-2.78,3.68-5.14,5.99-7.09,2.31-1.94,4.94-2.91,7.88-2.91s4.94.97,5.99,2.91c1.05,1.94,1.58,4.17,1.58,6.7,0,1.47-.13,2.91-.39,4.33-.26,1.42-.66,2.55-1.18,3.39ZM329.24,122.75c-1.05.84-2.1,2.07-3.15,3.7-1.05,1.63-2,3.39-2.84,5.28-.84,1.89-1.63,3.84-2.36,5.83-.74,2-1.31,3.83-1.73,5.51,1.26-1.15,2.84-3.36,4.73-6.62.42-.73.95-1.65,1.58-2.76.63-1.1,1.21-2.31,1.73-3.62.52-1.31,1-2.6,1.42-3.86.42-1.26.63-2.41.63-3.47Z"/>
    <path class="st0" d="M363.43,123.54c1.15.21,2.15.63,2.99,1.26l.63-1.42c1.05-4.83,2.18-9.66,3.39-14.49,1.21-4.83,2.49-9.61,3.86-14.34.42-1.36.97-3.31,1.65-5.83.68-2.52,1.52-4.96,2.52-7.32,1-2.36,2.23-4.44,3.7-6.22,1.47-1.78,3.2-2.68,5.2-2.68s3.39.63,4.18,1.89c.79,1.26,1.18,2.94,1.18,5.04,0,1.57-.18,3.26-.55,5.04-.37,1.79-.79,3.57-1.26,5.36-.47,1.79-1,3.52-1.58,5.2-.58,1.68-1.08,3.21-1.5,4.57-1.47,4.41-3.21,9.01-5.2,13.78-2,4.78-4.36,9.53-7.09,14.26-.74,3.99-1.44,7.96-2.13,11.89-.68,3.94-1.34,7.9-1.97,11.89v-.32c-.11,1.05-.21,2.1-.32,3.15-.11,1.05-.16,2.1-.16,3.15,0,2.73.42,4.99,1.26,6.77,1.15,0,2.52-.63,4.1-1.89,1.58-1.26,3.15-2.73,4.73-4.41,1.58-1.68,3.02-3.31,4.33-4.88,1.31-1.58,2.28-2.68,2.91-3.31.73-.52,1.36-.79,1.89-.79,1.68,0,2.52.84,2.52,2.52,0,.63-.21,1.31-.63,2.05-1.79,1.89-3.54,3.84-5.28,5.83-1.73,2-3.44,3.83-5.12,5.51-1.68,1.68-3.31,3.07-4.88,4.17-1.58,1.1-3.15,1.65-4.73,1.65-1.47,0-2.73-.5-3.78-1.5-1.05-1-1.89-2.36-2.52-4.1s-1.08-3.78-1.34-6.14c-.26-2.36-.39-4.91-.39-7.64,0-1.05,0-2.05,0-2.99s.05-1.89.16-2.84c-1.26,1.68-2.78,3.6-4.57,5.75-1.79,2.15-3.6,4.2-5.43,6.14-1.84,1.94-3.65,3.57-5.44,4.88-1.79,1.31-3.36,1.97-4.73,1.97h-.79c-1.79-.95-3.02-1.63-3.7-2.05-.68-.42-1.13-1.36-1.34-2.84,0-3.88.71-7.96,2.13-12.21,1.42-4.25,3.28-8.11,5.59-11.58,2.31-3.47,4.91-6.33,7.8-8.59,2.89-2.26,5.85-3.39,8.9-3.39h.79ZM346.1,153.79c3.25-3.36,6.38-7.14,9.37-11.34,2.99-4.2,5.85-8.61,8.59-13.23-.32-.1-.74-.16-1.26-.16h-.16c-5.04,2.31-8.77,5.7-11.19,10.16-2.42,4.47-4.2,9.32-5.36,14.57ZM371.62,149.85c-.11.11-.16.32-.16.63.1-.1.16-.32.16-.63ZM385.64,90.14c0-.1.02-.18.08-.24.05-.05.08-.13.08-.24-.11.11-.16.26-.16.47v.16s0-.16,0-.16Z"/>
  </g>
</svg>